<?xml version="1.0" encoding="UTF-8" standalone="no"?>
<svg
   width="64"
   height="64"
   version="1.1"
   id="svg3"
   xmlns="http://www.w3.org/2000/svg"
   xmlns:svg="http://www.w3.org/2000/svg">
  <defs
     id="defs1" />
  <rect
     style="display:none;fill:#000000"
     id="rect3"
     width="77.139076"
     height="67.814568"
     x="-2.8609271"
     y="-0.31788081" />
  <g
     id="g3"
     style="display:inline">
    <path
       stroke="none"
       fill="#ffffff"
       d="m 39.8,18 1.85,0.45 Q 43,19.3 43,21.75 V 27 H 37 V 26 Q 37,23.9 35.55,22.45 34.45,21.35 33,21.1 V 18 h 6.8 M 32,23 q 1.25,0 2.1,0.85 0.9,0.9 0.9,2.15 v 4.1 q 0,1.15 -0.9,2 -0.8,0.85 -1.95,0.9 h -0.3 Q 30.7,32.95 29.85,32.1 29,31.25 29,30.1 V 26 Q 29,24.75 29.85,23.85 30.75,23 32,23 M 43,35.65 V 36 q -0.2,4 -3.2,6.85 -3.1,3 -7.45,3.15 H 31.7 Q 27.35,45.85 24.2,42.85 21.25,40 21.05,36 L 21,35.7 V 29 h 6.1 v 2 q 0.25,1.45 1.35,2.55 Q 29.9,35 32,35 q 2.05,0 3.5,-1.45 L 35.55,33.5 Q 36.65,32.4 36.9,31 V 29 H 43 v 6.65 M 21,21.75 Q 21,19.3 22.4,18.45 23.1,18 24.25,18 H 31 v 3.1 q -1.4,0.25 -2.5,1.3 l -0.1,0.1 Q 27,23.95 27,26 v 1 h -6 v -5.25"
       id="path1" />
    <path
       stroke="none"
       fill="#ffffff"
       d="m 9,32 6,-6 h 2 V 38 H 15 L 9,32"
       id="path2"
       style="display:none" />
    <path
       stroke="none"
       fill="#ffffff"
       d="m 55,32 -6,6 H 47 V 26 h 2 l 6,6"
       id="path3"
       style="display:inline" />
  </g>
</svg>
